<?xml version="1.0" encoding="utf-8"?>
<!-- Generator: Adobe Illustrator 14.0.0, SVG Export Plug-In  -->
<!DOCTYPE svg PUBLIC "-//W3C//DTD SVG 1.1//EN" "http://www.w3.org/Graphics/SVG/1.1/DTD/svg11.dtd" [
	<!ENTITY ns_flows "http://ns.adobe.com/Flows/1.0/">
]>
<svg version="1.1"
	 xmlns="http://www.w3.org/2000/svg" xmlns:xlink="http://www.w3.org/1999/xlink" xmlns:a="http://ns.adobe.com/AdobeSVGViewerExtensions/3.0/"
	 x="0px" y="0px" width="151px" height="154px" viewBox="-0.868 -0.402 151 154" enable-background="new -0.868 -0.402 151 154"
	 xml:space="preserve">
<defs>
</defs>
<radialGradient id="SVGID_1_" cx="75.4033" cy="78.3696" r="72.2914" gradientUnits="userSpaceOnUse">
	<stop  offset="0.0121" style="stop-color:#733003;stop-opacity:0.25"/>
	<stop  offset="0.9091" style="stop-color:#260803;stop-opacity:0.25"/>
	<stop  offset="0.9243" style="stop-color:#290B06;stop-opacity:0.2417"/>
	<stop  offset="0.9364" style="stop-color:#311510;stop-opacity:0.235"/>
	<stop  offset="0.9476" style="stop-color:#3F2521;stop-opacity:0.2288"/>
	<stop  offset="0.9581" style="stop-color:#533C39;stop-opacity:0.223"/>
	<stop  offset="0.9682" style="stop-color:#6D5958;stop-opacity:0.2175"/>
	<stop  offset="0.978" style="stop-color:#8C7D7E;stop-opacity:0.2121"/>
	<stop  offset="0.9875" style="stop-color:#B1A8AA;stop-opacity:0.2069"/>
	<stop  offset="0.9966" style="stop-color:#DCD9DD;stop-opacity:0.2019"/>
	<stop  offset="1" style="stop-color:#EDEDF2;stop-opacity:0.2"/>
</radialGradient>
<circle fill="url(#SVGID_1_)" cx="75.404" cy="78.369" r="75.404"/>
<circle fill="#FAFAFC" stroke="#085408" stroke-width="8" cx="75.626" cy="72.079" r="68.079"/>
<path fill="none" stroke="#085408" stroke-width="8" d="M96.639,119.917V80.419V24.464c-6.082,1.646-17.11,50.382-9.463,56.367
	c9.463,7.406,7.311,39.086,7.311,39.086H96.639z"/>
<path fill="none" stroke="#085408" stroke-width="8" d="M64.173,120.629l-1.408-55.917c0,0,7.441,0.261,7.954-13.812
	c0.55-15.116,1.65-27.37,1.65-27.37l-2.652,22.764l-3.495-22.764L63.35,46.388l-3.494-22.858l-2.411,22.946l-4.727-22.946
	l1.646,27.37c0,0,0.388,13.34,8.583,13.812l-0.237,55.917H64.173z"/>
</svg>
