<?xml version="1.0" encoding="utf-8"?>
<!-- Generator: Adobe Illustrator 14.0.0, SVG Export Plug-In  -->
<!DOCTYPE svg PUBLIC "-//W3C//DTD SVG 1.1//EN" "http://www.w3.org/Graphics/SVG/1.1/DTD/svg11.dtd" [
	<!ENTITY ns_flows "http://ns.adobe.com/Flows/1.0/">
]>
<svg version="1.1"
	 xmlns="http://www.w3.org/2000/svg" xmlns:xlink="http://www.w3.org/1999/xlink" xmlns:a="http://ns.adobe.com/AdobeSVGViewerExtensions/3.0/"
	 x="0px" y="0px" width="76px" height="79px" viewBox="0 47.497 76 79" enable-background="new 0 47.497 76 79"
	 xml:space="preserve">
<defs>
</defs>
<path fill="none" stroke="#1818EA" stroke-width="8" d="M118.075,45.47c22.762,0,41.214-18.451,41.214-41.213
	c0-0.086-0.006-0.171-0.007-0.257H76.868c-0.001,0.086-0.007,0.171-0.007,0.257C76.861,27.019,95.313,45.47,118.075,45.47z"/>
<radialGradient id="SVGID_1_" cx="37.8662" cy="89.02" r="36.3032" gradientUnits="userSpaceOnUse">
	<stop  offset="0.0121" style="stop-color:#733003;stop-opacity:0.25"/>
	<stop  offset="0.9091" style="stop-color:#260803;stop-opacity:0.25"/>
	<stop  offset="0.9243" style="stop-color:#290B06;stop-opacity:0.2417"/>
	<stop  offset="0.9364" style="stop-color:#311510;stop-opacity:0.235"/>
	<stop  offset="0.9476" style="stop-color:#3F2521;stop-opacity:0.2288"/>
	<stop  offset="0.9581" style="stop-color:#533C39;stop-opacity:0.223"/>
	<stop  offset="0.9682" style="stop-color:#6D5958;stop-opacity:0.2175"/>
	<stop  offset="0.978" style="stop-color:#8C7D7E;stop-opacity:0.2121"/>
	<stop  offset="0.9875" style="stop-color:#B1A8AA;stop-opacity:0.2069"/>
	<stop  offset="0.9966" style="stop-color:#DCD9DD;stop-opacity:0.2019"/>
	<stop  offset="1" style="stop-color:#EDEDF2;stop-opacity:0.2"/>
</radialGradient>
<circle fill="url(#SVGID_1_)" cx="37.866" cy="89.019" r="37.866"/>
<circle fill="#FCFCFC" stroke="#80BAB7" stroke-width="8" cx="38.208" cy="85.02" r="33.524"/>
<ellipse opacity="0.2" fill="#575959" cx="37.564" cy="85.02" rx="37.553" ry="37.47"/>
<rect x="19.465" y="101.946" fill="#80BAB7" width="36.198" height="2.403"/>
<polygon fill="#80BAB7" points="23.451,85.272 37.655,99.116 51.678,85.272 40.439,85.272 40.439,64.52 34.727,64.52 34.727,85.272 
	"/>
</svg>
