<?xml version="1.0" encoding="utf-8"?>
<!-- Generator: Adobe Illustrator 14.0.0, SVG Export Plug-In  -->
<!DOCTYPE svg PUBLIC "-//W3C//DTD SVG 1.1//EN" "http://www.w3.org/Graphics/SVG/1.1/DTD/svg11.dtd" [
	<!ENTITY ns_flows "http://ns.adobe.com/Flows/1.0/">
]>
<svg version="1.1"
	 xmlns="http://www.w3.org/2000/svg" xmlns:xlink="http://www.w3.org/1999/xlink" xmlns:a="http://ns.adobe.com/AdobeSVGViewerExtensions/3.0/"
	 x="0px" y="0px" width="151px" height="154px" viewBox="0.035 -0.188 151 154" enable-background="new 0.035 -0.188 151 154"
	 xml:space="preserve">
<defs>
</defs>
<radialGradient id="SVGID_1_" cx="75.4038" cy="77.877" r="72.2914" gradientUnits="userSpaceOnUse">
	<stop  offset="0.0121" style="stop-color:#733003;stop-opacity:0.25"/>
	<stop  offset="0.9091" style="stop-color:#260803;stop-opacity:0.25"/>
	<stop  offset="0.9243" style="stop-color:#290B06;stop-opacity:0.2417"/>
	<stop  offset="0.9364" style="stop-color:#311510;stop-opacity:0.235"/>
	<stop  offset="0.9476" style="stop-color:#3F2521;stop-opacity:0.2288"/>
	<stop  offset="0.9581" style="stop-color:#533C39;stop-opacity:0.223"/>
	<stop  offset="0.9682" style="stop-color:#6D5958;stop-opacity:0.2175"/>
	<stop  offset="0.978" style="stop-color:#8C7D7E;stop-opacity:0.2121"/>
	<stop  offset="0.9875" style="stop-color:#B1A8AA;stop-opacity:0.2069"/>
	<stop  offset="0.9966" style="stop-color:#DCD9DD;stop-opacity:0.2019"/>
	<stop  offset="1" style="stop-color:#EDEDF2;stop-opacity:0.2"/>
</radialGradient>
<circle fill="url(#SVGID_1_)" cx="75.404" cy="77.875" r="75.404"/>
<circle fill="#FAFAFC" stroke="#23065B" stroke-width="8" cx="75.269" cy="72.08" r="68.079"/>
<path fill="none" stroke="#23065B" stroke-width="8" d="M121.893,74.594c0,4.318-9.497,4.74-9.497,4.74
	c-5.244,0-12.613,1.824-12.613-2.494c0-4.322,9.861-9.039,15.106-9.039S121.893,70.273,121.893,74.594z"/>
<path fill="none" stroke="#23065B" stroke-width="8" d="M30.053,74.307c0,4.318,9.497,4.74,9.497,4.74
	c5.245,0,12.613,1.824,12.613-2.494s-9.861-9.037-15.105-9.037C31.813,67.516,30.053,69.988,30.053,74.307z"/>
<path fill="none" stroke="#23065B" stroke-width="8" d="M22.465,87.152c0,0-1-17.967,2.395-22.486
	c2.632-3.506,16.229-6.652,16.229-6.652s1.083-23.166,7.981-28.645c11.953-9.492,40.393-10.221,51.877,0
	c6.568,5.844,10.641,27.848,10.641,27.848s12.864,3.09,15.431,6.383c3.659,4.695,3.459,23.553,3.459,23.553h-10.376
	c0,0,1.109,16.311-2.395,19.814h-9.311c-3.167-3.813-2.129-19.814-2.129-19.814H45.61c0,0,1.594,16.264-1.862,19.814h-9.843
	c-3.11-3.857-2.395-19.814-2.395-19.814H22.465z"/>
<path fill="none" stroke="#23065B" stroke-width="8" d="M51.77,57.713c-2.703-3.051,2.699-17.654,4.813-20.354
	c4.913-6.277,31.703-6.107,37.574,0c2.669,2.779,6.751,18.008,6.458,19.182C100.321,57.713,52.358,58.377,51.77,57.713z"/>
<ellipse opacity="0.2" fill="#575959" cx="75.598" cy="72.759" rx="72" ry="72.264"/>
</svg>
