<?xml version="1.0" encoding="utf-8"?>
<!-- Generator: Adobe Illustrator 14.0.0, SVG Export Plug-In  -->
<!DOCTYPE svg PUBLIC "-//W3C//DTD SVG 1.1//EN" "http://www.w3.org/Graphics/SVG/1.1/DTD/svg11.dtd" [
	<!ENTITY ns_flows "http://ns.adobe.com/Flows/1.0/">
]>
<svg version="1.1"
	 xmlns="http://www.w3.org/2000/svg" xmlns:xlink="http://www.w3.org/1999/xlink" xmlns:a="http://ns.adobe.com/AdobeSVGViewerExtensions/3.0/"
	 x="0px" y="0px" width="151px" height="154px" viewBox="0 -0.423 151 154" enable-background="new 0 -0.423 151 154"
	 xml:space="preserve">
<defs>
</defs>
<radialGradient id="SVGID_1_" cx="75.4033" cy="78.7163" r="72.2914" gradientUnits="userSpaceOnUse">
	<stop  offset="0.0121" style="stop-color:#733003;stop-opacity:0.25"/>
	<stop  offset="0.9091" style="stop-color:#260803;stop-opacity:0.25"/>
	<stop  offset="0.9243" style="stop-color:#290B06;stop-opacity:0.2417"/>
	<stop  offset="0.9364" style="stop-color:#311510;stop-opacity:0.235"/>
	<stop  offset="0.9476" style="stop-color:#3F2521;stop-opacity:0.2288"/>
	<stop  offset="0.9581" style="stop-color:#533C39;stop-opacity:0.223"/>
	<stop  offset="0.9682" style="stop-color:#6D5958;stop-opacity:0.2175"/>
	<stop  offset="0.978" style="stop-color:#8C7D7E;stop-opacity:0.2121"/>
	<stop  offset="0.9875" style="stop-color:#B1A8AA;stop-opacity:0.2069"/>
	<stop  offset="0.9966" style="stop-color:#DCD9DD;stop-opacity:0.2019"/>
	<stop  offset="1" style="stop-color:#EDEDF2;stop-opacity:0.2"/>
</radialGradient>
<circle fill="url(#SVGID_1_)" cx="75.404" cy="78.715" r="75.404"/>
<circle fill="#F7F7F9" stroke="#F7A603" stroke-width="8" cx="75.626" cy="72.08" r="68.079"/>
<path fill="none" stroke="#F7A603" stroke-width="8" d="M66.208,44.072c-0.094-2.752-0.438-19.709,13.354-26.662
	c0,0-4.179,26.138,7.154,27.651l0.738-0.208c0,0,12.295-15.15,28.454-10.428c0,0-20.38,17.191-13.131,26.035l1.634-0.185
	c0,0,17.413-1.181,25.118,13.786c0,0-26.163-4.973-27.58,6.372l-0.057,0.933c0,0,15.89,11.326,12.184,27.749
	c0,0-18.432-19.268-26.804-11.48l0.4,1.269c0,0,4.307,16.309-9.396,26.089c0,0-0.572-26.648-12.003-26.416l-0.844,0.846
	c0,0-11.817,14.014-27.793,8.706c0,0,20.991-16.438,14.068-25.538l-0.075-0.16c0,0-18.502,4.729-28.826-8.566
	c0,0,27.27-1.986,26.578-13.399l-0.29-1.034c0,0-13.736-13.86-7.295-29.414c0,0,14.892,22.118,24.465,15.867
	C66.262,45.884,66.217,44.321,66.208,44.072z"/>
</svg>
