<?xml version="1.0" encoding="utf-8"?>
<!-- Generator: Adobe Illustrator 14.0.0, SVG Export Plug-In  -->
<!DOCTYPE svg PUBLIC "-//W3C//DTD SVG 1.1//EN" "http://www.w3.org/Graphics/SVG/1.1/DTD/svg11.dtd" [
	<!ENTITY ns_flows "http://ns.adobe.com/Flows/1.0/">
]>
<svg version="1.1"
	 xmlns="http://www.w3.org/2000/svg" xmlns:xlink="http://www.w3.org/1999/xlink" xmlns:a="http://ns.adobe.com/AdobeSVGViewerExtensions/3.0/"
	 x="0px" y="0px" width="247px" height="250px" viewBox="0 0 247 250" enable-background="new 0 0 247 250" xml:space="preserve">
<defs>
</defs>
<radialGradient id="SVGID_1_" cx="123.4082" cy="126.9766" r="118.3143" gradientUnits="userSpaceOnUse">
	<stop  offset="0.0121" style="stop-color:#733003;stop-opacity:0.25"/>
	<stop  offset="0.9091" style="stop-color:#260803;stop-opacity:0.25"/>
	<stop  offset="0.9243" style="stop-color:#290B06;stop-opacity:0.21"/>
	<stop  offset="0.9364" style="stop-color:#311510;stop-opacity:0.1778"/>
	<stop  offset="0.9476" style="stop-color:#3F2521;stop-opacity:0.1484"/>
	<stop  offset="0.9581" style="stop-color:#533C39;stop-opacity:0.1206"/>
	<stop  offset="0.9682" style="stop-color:#6D5958;stop-opacity:0.0939"/>
	<stop  offset="0.978" style="stop-color:#8C7D7E;stop-opacity:0.0681"/>
	<stop  offset="0.9875" style="stop-color:#B1A8AA;stop-opacity:0.043"/>
	<stop  offset="0.9966" style="stop-color:#DCD9DD;stop-opacity:0.019"/>
	<stop  offset="1" style="stop-color:#EDEDF2;stop-opacity:0.01"/>
</radialGradient>
<path fill="url(#SVGID_1_)" d="M246.816,126.976c0,68.159-55.249,123.409-123.409,123.409C55.25,250.385,0,195.135,0,126.976
	C0,58.817,55.25,3.568,123.408,3.568C191.567,3.568,246.816,58.817,246.816,126.976z"/>
<circle fill="#F5F5F7" stroke="#B5662C" stroke-width="8" cx="124.477" cy="115.42" r="111.42"/>
<path fill="#F5F5F7" d="M72.03,162.774c0,0,101.109,0.19,101.522,0c0.449-0.205,24.402-72.291,23.258-72.84
	c-1.132-0.544-99.677,0-99.677,0s-23.242,72.571-24.519,72.84c-0.974,0.206-14.599-69.147-14.599-69.147s-3.377-19.285-2.967-19.86
	c0.214-0.3,37.19-0.073,37.657,0c0.501,0.078,4.798,16.243,4.798,16.243"/>
<path fill="#B5662C" d="M71.727,167.434l-1.548-1.015c-2.015-1.333-2.226-1.473-9.59-37.63c-3.464-17.01-6.833-34.146-6.866-34.318
	c-3.71-21.178-3.485-21.494-2.234-23.245c1.372-1.925,1.828-1.927,9.444-1.97c3.515-0.019,8.185-0.017,12.863-0.002
	c12.419,0.037,19.008,0.101,19.583,0.191c3.092,0.48,3.497,1.92,6.126,11.292c0.477,1.701,0.944,3.401,1.326,4.804
	c7.798-0.04,26.71-0.132,45.705-0.184c50.559-0.138,50.9,0.025,52.169,0.636c1.572,0.755,2.537,2.344,2.521,4.148
	c-0.01,1.042-0.031,3.208-11.714,39.011c-2.725,8.351-5.638,17.141-7.993,24.12c-4.259,12.621-4.259,12.621-6.146,13.484
	c-1.23,0.563-1.282,0.587-102.31,0.398L71.727,167.434L71.727,167.434z M79.187,158.412c34.436,0.059,79.669,0.105,91.315,0.035
	c3.699-10.569,16.911-50.488,20.876-64.308c-14.721-0.164-58.941-0.018-91.049,0.154c-1.905,5.927-6.339,19.685-10.82,33.326
	C84.305,143.465,81.229,152.829,79.187,158.412L79.187,158.412z M59.885,78.011c0.56,3.793,1.515,9.578,2.44,14.861
	c3.253,16.559,8.038,40.378,11.182,55.069c5.18-15.177,13.5-40.741,19.258-58.711c-1.121-4.158-2.342-8.518-3.137-11.142
	C83.104,78.017,67.544,77.955,59.885,78.011L59.885,78.011z"/>
</svg>
