<?xml version="1.0" encoding="utf-8"?>
<!-- Generator: Adobe Illustrator 14.0.0, SVG Export Plug-In  -->
<!DOCTYPE svg PUBLIC "-//W3C//DTD SVG 1.1//EN" "http://www.w3.org/Graphics/SVG/1.1/DTD/svg11.dtd" [
	<!ENTITY ns_flows "http://ns.adobe.com/Flows/1.0/">
]>
<svg version="1.1"
	 xmlns="http://www.w3.org/2000/svg" xmlns:xlink="http://www.w3.org/1999/xlink" xmlns:a="http://ns.adobe.com/AdobeSVGViewerExtensions/3.0/"
	 x="0px" y="0px" width="247px" height="250px" viewBox="-1.161 -1.317 247 250" enable-background="new -1.161 -1.317 247 250"
	 xml:space="preserve">
<defs>
</defs>
<radialGradient id="SVGID_1_" cx="122.248" cy="125.8198" r="117.2015" gradientUnits="userSpaceOnUse">
	<stop  offset="0.0121" style="stop-color:#733003;stop-opacity:0.25"/>
	<stop  offset="0.9091" style="stop-color:#260803;stop-opacity:0.25"/>
	<stop  offset="0.9243" style="stop-color:#290B06;stop-opacity:0.2116"/>
	<stop  offset="0.9364" style="stop-color:#311510;stop-opacity:0.1808"/>
	<stop  offset="0.9476" style="stop-color:#3F2521;stop-opacity:0.1526"/>
	<stop  offset="0.9581" style="stop-color:#533C39;stop-opacity:0.126"/>
	<stop  offset="0.9682" style="stop-color:#6D5958;stop-opacity:0.1004"/>
	<stop  offset="0.978" style="stop-color:#8C7D7E;stop-opacity:0.0757"/>
	<stop  offset="0.9875" style="stop-color:#B1A8AA;stop-opacity:0.0516"/>
	<stop  offset="0.9966" style="stop-color:#DCD9DD;stop-opacity:0.0286"/>
	<stop  offset="1" style="stop-color:#EDEDF2;stop-opacity:0.02"/>
</radialGradient>
<path fill="url(#SVGID_1_)" d="M244.496,125.818c0,67.52-54.729,122.249-122.249,122.249C54.73,248.067,0,193.338,0,125.818
	C0,58.302,54.73,3.572,122.247,3.572C189.766,3.572,244.496,58.302,244.496,125.818z"/>
<circle fill="#FCFCFC" stroke="#8E0606" stroke-width="8" cx="123.307" cy="114.372" r="110.373"/>
<rect x="72.655" y="62.26" fill="#FCFCFC" stroke="#8E0606" stroke-width="8" width="92.818" height="123.004"/>
<ellipse fill="#8E0606" cx="87.717" cy="90.02" rx="3.779" ry="4.301"/>
<line fill="none" stroke="#8E0606" stroke-width="8" x1="97.916" y1="90.02" x2="151.616" y2="90.02"/>
<ellipse fill="#8E0606" cx="87.717" cy="111.667" rx="3.779" ry="4.302"/>
<line fill="none" stroke="#8E0606" stroke-width="8" x1="97.916" y1="111.667" x2="151.616" y2="111.667"/>
<ellipse fill="#8E0606" cx="87.717" cy="133.873" rx="3.779" ry="4.303"/>
<line fill="none" stroke="#8E0606" stroke-width="8" x1="97.916" y1="133.873" x2="151.616" y2="133.873"/>
<ellipse fill="#8E0606" cx="87.717" cy="156.386" rx="3.779" ry="4.301"/>
<line fill="none" stroke="#8E0606" stroke-width="8" x1="97.916" y1="156.386" x2="151.616" y2="156.386"/>
<polyline fill="none" stroke="#8E0606" stroke-width="8" points="98.367,48.337 180.763,48.338 180.768,158.506 "/>
</svg>
