<?xml version="1.0" encoding="utf-8"?>
<!-- Generator: Adobe Illustrator 14.0.0, SVG Export Plug-In  -->
<!DOCTYPE svg PUBLIC "-//W3C//DTD SVG 1.1//EN" "http://www.w3.org/Graphics/SVG/1.1/DTD/svg11.dtd" [
	<!ENTITY ns_flows "http://ns.adobe.com/Flows/1.0/">
]>
<svg version="1.1"
	 xmlns="http://www.w3.org/2000/svg" xmlns:xlink="http://www.w3.org/1999/xlink" xmlns:a="http://ns.adobe.com/AdobeSVGViewerExtensions/3.0/"
	 x="0px" y="0px" width="247px" height="250px" viewBox="-1.161 -1.317 247 250" enable-background="new -1.161 -1.317 247 250"
	 xml:space="preserve">
<defs>
</defs>
<radialGradient id="SVGID_1_" cx="122.248" cy="125.8198" r="117.2015" gradientUnits="userSpaceOnUse">
	<stop  offset="0.0121" style="stop-color:#733003;stop-opacity:0.25"/>
	<stop  offset="0.9091" style="stop-color:#260803;stop-opacity:0.25"/>
	<stop  offset="0.9243" style="stop-color:#290B06;stop-opacity:0.2116"/>
	<stop  offset="0.9364" style="stop-color:#311510;stop-opacity:0.1808"/>
	<stop  offset="0.9476" style="stop-color:#3F2521;stop-opacity:0.1526"/>
	<stop  offset="0.9581" style="stop-color:#533C39;stop-opacity:0.126"/>
	<stop  offset="0.9682" style="stop-color:#6D5958;stop-opacity:0.1004"/>
	<stop  offset="0.978" style="stop-color:#8C7D7E;stop-opacity:0.0757"/>
	<stop  offset="0.9875" style="stop-color:#B1A8AA;stop-opacity:0.0516"/>
	<stop  offset="0.9966" style="stop-color:#DCD9DD;stop-opacity:0.0286"/>
	<stop  offset="1" style="stop-color:#EDEDF2;stop-opacity:0.02"/>
</radialGradient>
<path fill="url(#SVGID_1_)" d="M244.496,125.818c0,67.52-54.729,122.249-122.249,122.249C54.73,248.067,0,193.338,0,125.818
	C0,58.302,54.73,3.572,122.247,3.572C189.766,3.572,244.496,58.302,244.496,125.818z"/>
<circle fill="#F5F5F7" stroke="#68300B" stroke-width="8" cx="123.307" cy="114.372" r="110.373"/>
<circle fill="#F5F5F7" stroke="#68300B" stroke-width="8" cx="123.298" cy="118.705" r="33.423"/>
<path fill="#F5F5F7" stroke="#68300B" stroke-width="8" d="M68.06,120.879l-11.402-5.385c0,0-4.197-1.504-2.851-5.701
	c2.113-6.588,6.902-25.339,6.902-25.339s0.7-2.217,4.184-2.533c3.484-0.316,13.304,0.949,13.304,0.949l12.035-11.401l-0.95-13.938
	c0,0,0-2.851,2.217-4.118c2.217-1.265,24.072-6.968,24.072-6.968s3.801-0.951,5.702,1.585c1.9,2.533,4.833,12.316,4.833,12.316
	l17.972,4.786l9.819-7.602c1.491-0.755,4.435-1.267,6.652,0.634c2.217,1.9,19.003,18.371,19.003,18.371
	c1.663,2.177,0.95,3.801,0,5.701c-0.95,1.9-7.601,10.77-7.601,10.77l3.483,15.521l12.353,6.017c0,0,3.093,1.584,2.851,4.751
	c-0.238,3.11-7.918,26.923-7.918,26.923c-1.029,1.386-2.216,1.833-3.167,1.584l-12.669-0.95l-14.081,11.242l1.546,13.908
	c0,0,0.341,2.758-2.51,4.105c-2.64,1.246-24.309,7.247-24.309,7.247c-1.426,0.596-3.955,0.257-5.024-1.524
	c-0.858-1.433-6.934-13.125-6.934-13.125l-15.52-4.432c0,0-7.97,5.816-10.413,7.561c-1.663,1.188-3.285,0.941-6.057-0.593
	l-18.688-19.004c0,0-1.763-1.918,0-4.119c1.697-2.115,7.285-10.768,7.285-10.768L68.06,120.879z"/>
<circle fill="#F5F5F7" stroke="#68300B" stroke-width="8" cx="122.137" cy="114.921" r="33.423"/>
</svg>
