<?xml version="1.0" encoding="utf-8"?>
<!-- Generator: Adobe Illustrator 14.0.0, SVG Export Plug-In  -->
<!DOCTYPE svg PUBLIC "-//W3C//DTD SVG 1.1//EN" "http://www.w3.org/Graphics/SVG/1.1/DTD/svg11.dtd" [
	<!ENTITY ns_flows "http://ns.adobe.com/Flows/1.0/">
]>
<svg version="1.1"
	 xmlns="http://www.w3.org/2000/svg" xmlns:xlink="http://www.w3.org/1999/xlink" xmlns:a="http://ns.adobe.com/AdobeSVGViewerExtensions/3.0/"
	 x="0px" y="0px" width="123px" height="158px" viewBox="0 0 123 158" enable-background="new 0 0 123 158" xml:space="preserve">
<defs>
</defs>
<path fill="#062572" d="M63.055,158.073l-1.404-0.011c-48.424-0.765-59.157-38.54-61.293-50.104l-0.16-1.177L0,53.165l0.027-0.233
	C0.09,52.4,6.869,0,59.751,0c0.643,0,1.288,0.009,1.945,0.023c54.456,1.301,61.629,52.354,61.693,52.867l0.032,0.497l-0.025,54.983
	C123.336,108.869,116.902,158.073,63.055,158.073L63.055,158.073z M8.026,106.37c0.011,0.053,0.021,0.106,0.031,0.168
	c1.862,10.078,11.24,43.024,53.714,43.693l1.283,0.011c45.753,0,52.051-38.943,52.537-42.573V53.662
	c-0.569-3.861-7.714-44.698-54.082-45.809C15.358,6.799,8.36,49.729,7.83,53.632L8.026,106.37L8.026,106.37z"/>
<path fill="#062572" d="M57.67,150.737l0.125-62.683l-28.847,23.877l-4.994-6.035l30.475-25.225L23.87,53.883l5.161-5.889
	l28.79,25.24L57.952,7.18l45.178,43.353L66.503,80.848l36.79,32.249L57.67,150.737L57.67,150.737z M65.621,90.484l-0.087,43.612
	l25.672-21.176L65.621,90.484L65.621,90.484z M65.749,25.519l-0.091,45.862l25.71-21.279L65.749,25.519L65.749,25.519z"/>
</svg>
