<?xml version="1.0" encoding="utf-8"?>
<!-- Generator: Adobe Illustrator 14.0.0, SVG Export Plug-In  -->
<!DOCTYPE svg PUBLIC "-//W3C//DTD SVG 1.1//EN" "http://www.w3.org/Graphics/SVG/1.1/DTD/svg11.dtd" [
	<!ENTITY ns_flows "http://ns.adobe.com/Flows/1.0/">
]>
<svg version="1.1"
	 xmlns="http://www.w3.org/2000/svg" xmlns:xlink="http://www.w3.org/1999/xlink" xmlns:a="http://ns.adobe.com/AdobeSVGViewerExtensions/3.0/"
	 x="0px" y="0px" width="144px" height="144px" viewBox="0 0.001 144 144" enable-background="new 0 0.001 144 144"
	 xml:space="preserve">
<defs>
</defs>
<circle fill="#F9F9F9" stroke="#1818EA" stroke-width="8" cx="72.153" cy="72.152" r="68.153"/>
<path fill="#575959" d="M121.29,97.246c-0.006,3.766-3.061,6.811-6.825,6.805l-84.888-0.127c-3.764-0.008-6.81-3.063-6.806-6.824
	l0.068-44.857c0.006-3.766,3.062-6.811,6.824-6.805l84.892,0.127c3.762,0.006,6.808,3.064,6.802,6.826L121.29,97.246z"/>
<path fill="#575959" d="M95.62,47.723c-0.002,1.523-4.707,2.754-6.229,2.75l-34.31-0.051c-1.521-0.002-6.223-1.238-6.221-2.758
	l3.498-6.85c0.543-1.635,1.237-2.754,2.758-2.752l34.311,0.053c1.521,0.002,2.179,1.082,2.749,2.758L95.62,47.723z"/>
<circle fill="none" stroke="#F4F9F9" stroke-width="5" cx="72.819" cy="73.486" r="20.989"/>
</svg>
