<?xml version="1.0" encoding="utf-8"?>
<!-- Generator: Adobe Illustrator 14.0.0, SVG Export Plug-In  -->
<!DOCTYPE svg PUBLIC "-//W3C//DTD SVG 1.1//EN" "http://www.w3.org/Graphics/SVG/1.1/DTD/svg11.dtd" [
	<!ENTITY ns_flows "http://ns.adobe.com/Flows/1.0/">
]>
<svg version="1.1"
	 xmlns="http://www.w3.org/2000/svg" xmlns:xlink="http://www.w3.org/1999/xlink" xmlns:a="http://ns.adobe.com/AdobeSVGViewerExtensions/3.0/"
	 x="0px" y="0px" width="140px" height="140px" viewBox="0 0 140 140" enable-background="new 0 0 140 140" xml:space="preserve">
<defs>
</defs>
<circle fill="#F7F9F9" stroke="#F90808" stroke-width="8" cx="69.819" cy="69.819" r="65.819"/>
<path fill="#575959" d="M119.29,93.579c-0.006,3.766-3.061,6.811-6.825,6.805l-84.888-0.127c-3.764-0.008-6.81-3.063-6.806-6.825
	l0.068-44.857c0.006-3.765,3.062-6.81,6.824-6.805l84.892,0.128c3.762,0.006,6.808,3.063,6.802,6.825L119.29,93.579z"/>
<path fill="#575959" d="M93.62,44.056c-0.002,1.522-4.707,2.753-6.229,2.75l-34.31-0.051c-1.521-0.003-6.223-1.238-6.221-2.759
	l3.498-6.85c0.543-1.634,1.237-2.753,2.758-2.751l34.311,0.052c1.521,0.003,2.179,1.082,2.749,2.759L93.62,44.056z"/>
<circle fill="none" stroke="#F4F9F9" stroke-width="5" cx="70.819" cy="69.819" r="20.989"/>
<line fill="none" stroke="#F90808" stroke-width="8" x1="21.852" y1="118.046" x2="116.955" y2="25.878"/>
</svg>
