<?xml version="1.0" encoding="utf-8"?>
<!-- Generator: Adobe Illustrator 14.0.0, SVG Export Plug-In  -->
<!DOCTYPE svg PUBLIC "-//W3C//DTD SVG 1.1//EN" "http://www.w3.org/Graphics/SVG/1.1/DTD/svg11.dtd" [
	<!ENTITY ns_flows "http://ns.adobe.com/Flows/1.0/">
]>
<svg version="1.1"
	 xmlns="http://www.w3.org/2000/svg" xmlns:xlink="http://www.w3.org/1999/xlink" xmlns:a="http://ns.adobe.com/AdobeSVGViewerExtensions/3.0/"
	 x="0px" y="0px" width="441px" height="249px" viewBox="-4.931 -2.092 441 249" enable-background="new -4.931 -2.092 441 249"
	 xml:space="preserve">
<defs>
</defs>
<path fill="#EDEDF2" d="M428.269,214.305c-0.022,15.283-13.179,27.643-29.396,27.619l-365.634-0.551
	C17.027,241.34,3.906,228.941,3.922,213.67L4.197,31.611C4.223,16.334,17.383,3.977,33.59,4l365.649,0.549
	c16.201,0.025,29.327,12.436,29.3,27.701L428.269,214.305z"/>
<circle fill="#F7F9F9" stroke="#F90808" stroke-width="8" cx="220.861" cy="125.857" r="65.819"/>
<path fill="#575959" d="M270.332,149.617c-0.006,3.766-3.061,6.811-6.825,6.805l-84.888-0.127c-3.764-0.008-6.81-3.063-6.806-6.824
	l0.068-44.857c0.006-3.766,3.062-6.811,6.824-6.805l84.892,0.127c3.762,0.006,6.808,3.064,6.802,6.826L270.332,149.617z"/>
<path fill="#575959" d="M244.662,100.094c-0.002,1.523-4.707,2.754-6.229,2.75l-34.31-0.051c-1.521-0.002-6.223-1.238-6.221-2.758
	l3.498-6.85c0.543-1.635,1.237-2.754,2.758-2.752l34.311,0.053c1.521,0.002,2.179,1.082,2.749,2.758L244.662,100.094z"/>
<circle fill="none" stroke="#F4F9F9" stroke-width="5" cx="221.861" cy="125.857" r="20.989"/>
<line fill="none" stroke="#F90808" stroke-width="8" x1="172.894" y1="174.084" x2="267.997" y2="81.916"/>
<path fill="none" stroke="#80BAB7" stroke-width="8" d="M428.347,214.305c-0.022,15.283-13.179,27.643-29.396,27.619l-365.634-0.551
	C17.105,241.34,3.984,228.941,4,213.67L4.275,31.611C4.301,16.334,17.461,3.977,33.668,4l365.649,0.549
	c16.201,0.025,29.327,12.436,29.3,27.701L428.347,214.305z"/>
</svg>
