<?xml version="1.0" encoding="utf-8"?>
<!-- Generator: Adobe Illustrator 14.0.0, SVG Export Plug-In  -->
<!DOCTYPE svg PUBLIC "-//W3C//DTD SVG 1.1//EN" "http://www.w3.org/Graphics/SVG/1.1/DTD/svg11.dtd" [
	<!ENTITY ns_flows "http://ns.adobe.com/Flows/1.0/">
]>
<svg version="1.1"
	 xmlns="http://www.w3.org/2000/svg" xmlns:xlink="http://www.w3.org/1999/xlink" xmlns:a="http://ns.adobe.com/AdobeSVGViewerExtensions/3.0/"
	 x="0px" y="0px" width="76px" height="79px" viewBox="-6.666 -6.769 76 79" enable-background="new -6.666 -6.769 76 79"
	 xml:space="preserve">
<defs>
</defs>
<linearGradient id="SVGID_1_" gradientUnits="userSpaceOnUse" x1="31.8477" y1="66.8999" x2="31.8477" y2="4.232">
	<stop  offset="0" style="stop-color:#F5F5F5;stop-opacity:0.2"/>
	<stop  offset="0.0606" style="stop-color:#84ACAA;stop-opacity:0.3516"/>
	<stop  offset="0.3394" style="stop-color:#F5F5F5;stop-opacity:0.2"/>
	<stop  offset="0.4121" style="stop-color:#84ACAA;stop-opacity:0.3516"/>
	<stop  offset="0.6307" style="stop-color:#83AAA8;stop-opacity:0.63"/>
	<stop  offset="0.7094" style="stop-color:#7EA3A1;stop-opacity:0.7303"/>
	<stop  offset="0.7656" style="stop-color:#769896;stop-opacity:0.8018"/>
	<stop  offset="0.8109" style="stop-color:#6A8785;stop-opacity:0.8595"/>
	<stop  offset="0.8498" style="stop-color:#5B7170;stop-opacity:0.9091"/>
	<stop  offset="0.8842" style="stop-color:#495555;stop-opacity:0.9529"/>
	<stop  offset="0.9146" style="stop-color:#333636;stop-opacity:0.9916"/>
	<stop  offset="0.9212" style="stop-color:#2E2E2E"/>
</linearGradient>
<polygon fill="url(#SVGID_1_)" points="63.36,26.306 39.068,26.306 39.068,2.786 24.625,2.786 24.625,26.306 0.334,26.306 
	0.334,40.75 24.625,40.75 24.625,65.811 39.068,65.811 39.068,40.75 63.36,40.75 "/>
<polygon fill="#FCFCFC" points="63.36,23.521 39.068,23.521 39.068,0 24.625,0 24.625,23.521 0.334,23.521 0.334,37.964 
	24.625,37.964 24.625,63.025 39.068,63.025 39.068,37.964 63.36,37.964 "/>
<polygon opacity="0.2" fill="#575959" points="63.026,25.935 38.734,25.935 38.734,2.413 24.291,2.413 24.291,25.935 0,25.935 
	0,40.377 24.291,40.377 24.291,65.438 38.734,65.438 38.734,40.377 63.026,40.377 "/>
</svg>
